<svg role="img" viewBox="0 0 24 24" xmlns="http://www.w3.org/2000/svg"><title>Google</title><path d="M12.48 10.92v3.28h7.84c-.24 1.84-.85 3.18-1.73 4.1-1.02 1.02-2.62 1.98-4.66 1.98-3.55 0-6.42-2.93-6.42-6.55s2.87-6.55 6.42-6.55c2.03 0 3.36.83 4.13 1.55l2.44-2.32C17.46.62 15.25 0 12.48 0 5.88 0 .02 5.84.02 12.91s5.86 12.91 12.46 12.91c7.16 0 12.2-4.83 12.2-12.35 0-1.16-.1-1.84-.26-2.54z" fill="#4285F4"/><path d="M21.12 10.92H12.48v3.28h8.64c-.28 2.06-1.59 4.1-3.6 5.51l2.44 2.32c2.06-1.92 3.42-4.78 3.42-8.29 0-1.16-.1-1.84-.26-2.54z" fill="#34A853"/><path d="M3.76 14.93c-.4-1.2-.6-2.48-.6-3.82s.2-2.62.6-3.82L1.32 4.95C.52 6.8.22 8.9.22 11.11s.3 4.31 1.1 6.16z" fill="#FBBC05"/><path d="M12.48 25.82c2.97 0 5.46-1.02 7.28-2.76l-2.44-2.32c-.93.62-2.18 1-3.8 1-2.9 0-5.36-1.93-6.24-4.52l-2.44 2.32C4.18 22.99 8.02 25.82 12.48 25.82z" fill="#EA4335"/></svg>